<svg width="1270" height="1476" viewBox="0 0 1270 1476" fill="none" xmlns="http://www.w3.org/2000/svg">
<path d="M948 1156.08C948 1180.84 939.434 1200.83 922.301 1216.07C905.169 1231.3 884.227 1238.92 859.482 1238.92C836.639 1238.92 814.749 1230.35 793.807 1213.21C740.508 1169.41 688.157 1124.66 636.759 1078.96C587.263 1033.26 535.866 989.459 482.566 947.567C490.179 995.171 498.745 1042.78 508.265 1090.39C517.785 1137.99 527.299 1185.6 536.819 1233.21C540.628 1252.25 545.386 1273.2 551.096 1296.05C556.807 1317 560.616 1337.94 562.518 1358.89C562.518 1362.7 562.518 1367.46 562.518 1373.17C562.518 1378.88 562.518 1383.64 562.518 1387.45C562.518 1410.3 553.952 1431.25 536.819 1450.29C519.687 1467.43 499.699 1476 476.855 1476C450.203 1476 428.313 1466.48 411.181 1447.44C395.95 1428.4 388.337 1406.49 388.337 1381.74C388.337 1364.6 391.193 1347.46 396.904 1330.32C404.516 1311.28 409.279 1293.19 411.181 1276.05C420.701 1220.83 430.215 1166.56 439.735 1113.24C449.255 1058.01 455.914 1003.74 459.723 950.423C400.713 992.315 346.46 1038.02 296.964 1087.53C247.468 1137.04 195.122 1183.69 139.916 1227.49C122.783 1240.82 105.651 1247.49 88.5181 1247.49C65.6747 1247.49 44.7348 1239.87 25.6988 1224.64C8.56627 1209.4 0 1189.41 0 1164.65C0 1145.61 4.75885 1127.52 14.2771 1110.38C23.7954 1093.24 38.0725 1081.82 57.1084 1076.1C123.735 1055.16 190.361 1034.21 256.988 1013.26C323.616 990.413 388.337 961.849 451.157 927.572C407.372 906.623 362.639 887.582 316.952 870.444C271.265 851.403 225.578 835.213 179.892 821.885C158.952 812.362 137.06 804.747 114.217 799.034C91.3735 793.321 69.4821 786.654 48.5422 779.039C33.3131 773.326 20.94 762.855 11.4217 747.619C3.80742 730.48 0 714.296 0 699.06C0 672.398 8.56627 652.404 25.6988 639.076C42.8313 623.841 63.7713 616.225 88.5181 616.225C113.265 616.225 132.301 622.889 145.627 636.219C172.277 657.168 197.024 680.019 219.867 704.773C244.613 729.526 269.363 753.332 294.108 776.183C320.761 799.034 347.408 820.931 374.06 841.88C402.614 862.829 432.122 883.772 462.578 904.721C454.966 834.265 443.544 764.757 428.313 696.204C413.082 627.65 398.805 558.144 385.482 487.687C385.482 483.878 384.528 481.022 382.627 479.117C382.627 475.309 382.627 472.452 382.627 470.548C382.627 447.697 391.193 427.702 408.325 410.564C427.36 391.521 448.301 382 471.145 382C495.89 382 516.831 392.473 533.964 413.42C551.096 432.463 559.663 453.41 559.663 476.261C559.663 478.165 558.709 480.07 556.807 481.974C556.807 481.974 556.807 482.926 556.807 484.83C539.675 553.384 525.398 623.841 513.976 696.204C502.554 766.66 492.086 836.167 482.566 904.721C539.675 862.829 592.974 818.075 642.47 770.47C693.867 722.865 746.219 677.163 799.518 633.363C818.552 618.129 837.592 610.512 856.627 610.512C879.47 610.512 899.458 618.129 916.59 633.363C933.723 648.597 942.289 668.594 942.289 693.347C942.289 733.337 926.11 760.947 893.747 776.183C886.134 776.183 863.291 783.798 825.217 799.034C789.05 812.362 747.167 828.552 699.578 847.593C653.892 866.633 611.06 883.772 571.084 899.008C533.01 914.244 508.265 924.715 496.843 930.428C542.53 951.377 589.171 971.372 636.759 990.413C686.255 1007.55 734.797 1023.74 782.386 1038.97C801.42 1044.68 820.46 1050.4 839.494 1056.11C860.436 1061.82 879.47 1068.49 896.602 1076.1C930.868 1093.24 948 1119.9 948 1156.08Z" fill="white"/>
<path d="M525.676 450.496C566.874 488.402 612.834 520.779 662.396 546.812C823.72 633.171 935.224 618.735 935.224 618.735C953.537 628.574 967.203 645.272 973.225 665.17C979.248 685.068 977.135 706.541 967.351 724.884L920.039 813.266C909.454 832.991 892.826 848.804 872.596 858.385C852.365 867.967 829.596 870.812 807.629 866.504C719.744 847.661 635.172 815.78 556.718 771.919L533.672 759.582C453.667 718.618 380.239 665.918 315.824 603.233C300.058 587.341 289.8 566.816 286.554 544.667C283.309 522.519 287.248 499.913 297.792 480.167L345.104 391.785C354.92 373.448 371.618 359.762 391.525 353.737C411.432 347.712 432.917 349.842 451.254 359.658C460.68 376.774 471.917 392.829 484.771 407.547C488.278 411.796 492.13 416.23 496.329 420.85C504.726 430.089 514.505 440.068 525.676 450.496Z" fill="#CCCCFF"/>
<path d="M955.909 451.907L1020.78 486.636C1029.95 491.544 1040.7 492.608 1050.65 489.596C1060.6 486.583 1068.95 479.74 1073.86 470.572C1094.15 432.661 1085.95 387.056 1069.25 346.535C1075.1 348.706 1080.51 351.906 1085.24 355.986C1092.89 351.637 1101.51 349.296 1110.31 349.183C1119.1 349.071 1127.79 351.189 1135.54 355.342C1143.3 359.494 1149.88 365.544 1154.66 372.927C1159.45 380.31 1162.28 388.786 1162.9 397.562C1171.39 399.904 1179.14 404.356 1185.44 410.503C1191.74 416.65 1196.38 424.292 1198.93 432.716C1201.48 441.141 1201.86 450.074 1200.02 458.683C1198.19 467.292 1194.21 475.297 1188.44 481.951C1192.79 489.598 1195.13 498.223 1195.25 507.021C1195.36 515.818 1193.24 524.5 1189.09 532.257C1184.94 540.013 1178.89 546.591 1171.5 551.375C1164.12 556.16 1155.65 558.995 1146.87 559.616C1144.53 568.101 1140.08 575.855 1133.93 582.155C1127.78 588.455 1120.14 593.097 1111.71 595.646C1103.29 598.196 1094.36 598.572 1085.75 596.738C1077.14 594.904 1069.13 590.92 1062.48 585.158C1054.83 589.507 1046.21 591.848 1037.41 591.96C1028.61 592.073 1019.93 589.954 1012.17 585.802C1004.42 581.65 997.84 575.6 993.056 568.217C988.271 560.833 985.436 552.358 984.815 543.582C976.317 541.264 968.55 536.821 962.246 530.671C955.941 524.521 951.307 516.866 948.779 508.429C947.228 503.43 946.466 498.22 946.52 492.987C946.576 480.557 951.103 468.561 959.273 459.193C957.941 456.868 956.815 454.43 955.909 451.907V451.907Z" fill="#EBEBFF"/>
<path d="M772.445 424.262C768.701 431.219 762.688 436.684 755.407 439.75C748.129 442.763 740.018 443.097 732.517 440.692C688.054 426.822 595.524 406.644 525.653 450.483C514.483 440.055 504.703 430.076 496.306 420.837C492.108 416.217 488.255 411.783 484.748 407.534L484.987 407.365C539.075 382.207 636.458 331.007 754.598 376.458C759.101 378.189 763.185 380.856 766.58 384.283C769.975 387.71 772.603 391.82 774.29 396.339C775.978 400.859 776.686 405.685 776.368 410.499C776.05 415.312 774.713 420.003 772.445 424.262V424.262Z" fill="#C22026"/>
<path d="M1012.5 363.598C1019.73 280.298 909.901 228.47 870.831 212.003C867.559 210.662 863.904 210.6 860.589 211.827C857.273 213.054 854.54 215.482 852.93 218.629C851.319 221.777 850.95 225.414 851.894 228.821C852.839 232.227 855.028 235.155 858.029 237.024C888.599 256.354 969.636 315.449 953.258 391.185C946.482 424.578 941.907 458.381 939.563 492.374C934.3 559.532 935.224 618.734 935.224 618.734C935.224 618.734 823.72 633.17 662.396 546.811C612.834 520.779 566.874 488.401 525.676 450.495C595.547 406.656 688.076 426.834 732.54 440.704C740.041 443.109 748.152 442.776 755.43 439.763C762.711 436.697 768.724 431.231 772.468 424.274C774.736 420.016 776.072 415.324 776.391 410.511C776.709 405.697 776 400.871 774.313 396.351C772.626 391.832 769.998 387.723 766.603 384.295C763.208 380.868 759.123 378.201 754.62 376.47C636.481 331.019 539.098 382.219 485.009 407.377L484.771 407.546C471.917 392.828 460.68 376.773 451.254 359.657L625.319 240.54C665.186 202.816 715.915 178.598 770.316 171.318C824.717 164.039 880.03 174.067 928.412 199.982L962.175 218.056C994.212 235.118 1021.23 260.262 1040.55 290.994C1051.67 308.656 1061.26 327.233 1069.23 346.525C1085.94 387.046 1094.14 432.651 1073.84 470.562L1051.95 458.841C1035.36 449.996 1022.35 435.662 1015.16 418.29C1007.96 400.917 1007.02 381.586 1012.5 363.598V363.598Z" fill="#EB2335"/>
<path d="M1050.61 489.553C1055.54 488.069 1060.13 485.627 1064.11 482.367C1068.09 479.106 1071.4 475.091 1073.83 470.552L1051.93 458.832C1035.34 449.986 1022.33 435.652 1015.14 418.28C1007.94 400.908 1007 381.576 1012.48 363.589C1019.72 280.288 909.882 228.46 870.812 211.993C867.541 210.653 863.885 210.59 860.57 211.818C857.255 213.045 854.521 215.473 852.911 218.62C851.301 221.767 850.932 225.404 851.876 228.811C852.821 232.218 855.01 235.146 858.011 237.014C888.581 256.344 969.618 315.439 953.24 391.175C949.524 408.281 946.627 426.819 944.272 445.676L1020.75 486.616C1025.29 489.046 1030.26 490.556 1035.39 491.06C1040.51 491.564 1045.68 491.052 1050.61 489.553Z" fill="#C22026"/>
<path d="M973.229 665.17C970.289 655.297 965.416 646.107 958.892 638.136C952.368 630.164 944.324 623.569 935.227 618.735C935.227 618.735 823.723 633.171 662.4 546.812C612.837 520.779 566.877 488.402 525.679 450.496C514.509 440.068 504.729 430.089 496.332 420.85C492.134 416.23 488.281 411.796 484.774 407.547C471.92 392.829 460.683 376.774 451.257 359.658C435.317 351.143 416.927 348.388 399.192 351.858C381.456 355.328 365.461 364.81 353.904 378.704C352.014 386.001 351.718 393.62 353.034 401.043C354.351 408.466 357.251 415.518 361.535 421.72C389.228 461.851 460.649 537.829 636.912 622.119C704.191 654.295 754.523 675.397 792.141 689.011C810.098 695.45 825.625 707.285 836.593 722.893C847.562 738.501 853.436 757.12 853.41 776.196C853.383 795.273 847.458 813.875 836.447 829.453C825.435 845.031 809.876 856.823 791.901 863.213C797.335 864.417 802.637 865.535 807.633 866.504C829.599 870.812 852.368 867.967 872.599 858.385C892.83 848.804 909.457 832.991 920.042 813.267L967.355 724.884C972.244 715.817 975.281 705.869 976.289 695.617C977.298 685.366 976.257 675.016 973.229 665.17V665.17Z" fill="#EBEBFF"/>
<path d="M1008.11 557.397C1014.42 562.889 1022.02 566.689 1030.21 568.441C1038.39 570.193 1046.88 569.841 1054.89 567.417C1062.9 564.993 1070.16 560.576 1076 554.581C1081.84 548.585 1086.06 541.207 1088.27 533.136C1096.6 532.546 1104.65 529.854 1111.66 525.311C1118.67 520.768 1124.41 514.522 1128.36 507.157C1132.3 499.791 1134.31 491.547 1134.2 483.193C1134.1 474.84 1131.88 466.65 1127.74 459.388C1133.24 453.075 1137.04 445.471 1138.8 437.288C1140.55 429.105 1140.2 420.611 1137.78 412.6C1135.35 404.59 1130.93 397.326 1124.94 391.489C1118.94 385.652 1111.56 381.433 1103.48 379.227C1102.74 369.48 1099.16 360.163 1093.17 352.433C1090.43 353.395 1087.77 354.578 1085.21 355.972C1080.49 351.892 1075.07 348.691 1069.22 346.521C1085.95 387.054 1094.15 432.659 1073.86 470.57C1068.95 479.738 1060.6 486.581 1050.65 489.594C1040.69 492.606 1029.95 491.542 1020.78 486.634L955.909 451.905C956.815 454.428 957.94 456.866 959.273 459.191C951.102 468.559 946.576 480.555 946.519 492.985C946.465 498.218 947.228 503.428 948.779 508.427C951.306 516.864 955.941 524.519 962.245 530.669C968.55 536.819 976.317 541.262 984.814 543.58C985.374 550.481 987.272 557.208 990.402 563.383C996.625 562.511 1002.63 560.481 1008.11 557.397V557.397Z" fill="#CCCCFF"/>
<path d="M1150.7 501.488C1162.04 498.051 1167.36 482.462 1162.57 466.669C1157.79 450.877 1144.71 440.862 1133.37 444.299C1122.02 447.737 1116.71 463.326 1121.49 479.118C1126.28 494.91 1139.35 504.926 1150.7 501.488Z" fill="#F6FAFD"/>
<path d="M1133.11 539.637C1138.81 537.91 1141.48 530.081 1139.08 522.15C1136.68 514.219 1130.11 509.19 1124.41 510.918C1118.71 512.645 1116.04 520.474 1118.44 528.405C1120.84 536.335 1127.41 541.364 1133.11 539.637Z" fill="#F6FAFD"/>
<path d="M666.109 595.218C668.621 590.722 670.224 585.775 670.824 580.66C671.425 575.545 671.012 570.362 669.609 565.406C668.206 560.45 665.84 555.82 662.647 551.779C659.455 547.738 655.497 544.365 651 541.854C643.968 537.931 636.906 533.795 629.815 529.446C620.944 524.001 610.274 522.303 600.151 524.726C590.028 527.149 581.282 533.494 575.837 542.365C570.392 551.236 568.695 561.907 571.117 572.03C573.54 582.152 579.885 590.898 588.756 596.343C596.334 600.992 603.86 605.377 611.327 609.567C612.595 610.246 613.963 610.875 615.255 611.507C624.218 615.743 634.454 616.417 643.895 613.393C653.336 610.369 661.275 603.873 666.109 595.218V595.218Z" fill="#F6FAFD"/>
<path d="M678.237 600.952C674.817 609.87 674.77 619.73 678.105 628.681C681.44 637.631 687.927 645.057 696.349 649.564C697.81 650.342 699.315 651.034 700.858 651.636C767.985 676.775 838.376 692.139 909.874 697.257L913.67 697.615C923.895 698.38 934.013 695.11 941.856 688.505C949.699 681.9 954.642 672.485 955.627 662.279C956.612 652.073 953.56 641.887 947.124 633.905C940.689 625.922 931.383 620.777 921.201 619.573C857.337 618.93 794.223 605.727 735.457 580.717C733.269 579.902 731.153 579.258 728.937 578.413C724.128 576.561 719.001 575.675 713.85 575.805C708.699 575.936 703.624 577.08 698.915 579.174C694.206 581.267 689.956 584.268 686.408 588.005C682.86 591.741 680.083 596.141 678.237 600.952V600.952Z" fill="#F6FAFD"/>
<path d="M672.364 427.052C662.252 405.313 655.45 382.184 652.184 358.432C580.687 360.083 522.474 389.955 484.986 407.366L484.748 407.534C488.255 411.784 492.107 416.218 496.306 420.838C504.703 430.077 514.482 440.056 525.653 450.483C571.479 421.733 626.987 420.566 672.364 427.052Z" fill="#911A1C"/>
<path d="M652.207 358.444C645.22 308.296 654.333 257.226 678.233 212.59L686.154 197.794C663.931 209.069 643.44 223.472 625.306 240.563L451.254 359.657C460.68 376.774 471.916 392.829 484.77 407.546L485.009 407.378C522.497 389.967 580.71 360.095 652.207 358.444Z" fill="#C22026"/>
<path d="M672.402 427.071C626.973 420.543 571.483 421.733 525.691 450.502C566.889 488.408 612.849 520.786 662.411 546.818C823.735 633.177 935.239 618.741 935.239 618.741C935.239 618.741 935.093 609.071 935.252 593.293C881.601 582.151 829.673 563.911 780.84 539.054C733.009 515.147 694.758 475.646 672.402 427.071Z" fill="#C22026"/>
<path d="M938.291 355.451C929.227 308.687 891.409 267.391 841.776 273.067C829.921 274.414 808.142 271.369 802.164 286.137C800.884 289.862 800.56 293.848 801.221 297.73C804.082 322.848 819.949 343.336 829.864 366.078C839.466 392.946 846.96 420.522 852.277 448.555C856.278 464.04 863.958 481.375 879.347 483.535C893.321 485.485 906.161 473.575 914.682 461.34C936.248 430.555 944.737 392.48 938.291 355.451V355.451Z" fill="#FF5968"/>
<path d="M942.677 770.977L920.039 813.267C909.465 832.998 892.842 848.818 872.613 858.405C852.383 867.991 829.613 870.839 807.646 866.528C719.761 847.657 635.185 815.769 556.718 771.919L533.672 759.582C453.669 718.6 380.233 665.902 315.794 603.232C300.026 587.342 289.769 566.814 286.528 544.664C283.288 522.514 287.236 499.908 297.792 480.167L345.104 391.785C354.92 373.448 371.618 359.762 391.525 353.737C411.432 347.712 432.917 349.842 451.254 359.658V359.658C472.575 396.521 500.096 429.429 532.607 456.934" stroke="black" stroke-width="31.2812" stroke-linejoin="round"/>
<path d="M595.25 506.079C616.866 520.882 639.282 534.48 662.396 546.812C823.72 633.171 935.224 618.735 935.224 618.735C953.561 628.551 967.247 645.249 973.272 665.156C979.297 685.063 977.167 706.548 967.351 724.885L955.014 747.931" stroke="black" stroke-width="31.2812" stroke-linejoin="round"/>
<path d="M552.928 474.363C559.525 479.763 566.49 485.216 573.821 490.722" stroke="black" stroke-width="31.2812" stroke-linejoin="round"/>
<path d="M451.254 359.657L625.373 240.495C665.232 202.798 715.942 178.597 770.32 171.321C824.697 164.044 879.986 174.061 928.355 199.952L962.221 218.081C994.259 235.115 1021.26 260.269 1040.52 291.022C1070.72 339.556 1104.27 413.73 1073.84 470.562C1068.94 479.73 1060.59 486.573 1050.63 489.586C1040.68 492.599 1029.94 491.534 1020.77 486.626L974.677 461.952" stroke="black" stroke-width="31.2812" stroke-linejoin="round"/>
<path d="M889.966 260.17C924.539 288.64 965.338 335.387 953.258 391.186C933.125 484.184 935.224 618.735 935.224 618.735" stroke="black" stroke-width="31.2812" stroke-linejoin="round"/>
<path d="M846.637 230.334C854.271 234.589 861.683 239.23 868.845 244.238" stroke="black" stroke-width="31.2812" stroke-linejoin="round"/>
<path d="M485.009 407.379C544.253 379.792 655.745 320.874 789.493 392.472" stroke="black" stroke-width="31.2812" stroke-linejoin="round"/>
<path d="M965.864 533.807C971.45 538.305 977.896 541.615 984.807 543.532C985.418 552.316 988.248 560.801 993.031 568.193C997.815 575.585 1004.4 581.642 1012.16 585.797C1019.92 589.953 1028.61 592.07 1037.41 591.952C1046.22 591.834 1054.85 589.483 1062.5 585.12C1069.14 590.898 1077.14 594.895 1085.74 596.739C1094.35 598.583 1103.28 598.212 1111.71 595.662C1120.13 593.113 1127.77 588.467 1133.91 582.16C1140.05 575.853 1144.49 568.091 1146.81 559.601C1155.6 558.99 1164.08 556.16 1171.47 551.377C1178.87 546.593 1184.92 540.012 1189.08 532.25C1193.23 524.487 1195.35 515.797 1195.23 506.994C1195.12 498.19 1192.76 489.56 1188.4 481.912C1194.18 475.271 1198.18 467.273 1200.02 458.666C1201.86 450.059 1201.49 441.125 1198.94 432.7C1196.39 424.275 1191.75 416.635 1185.44 410.496C1179.13 404.356 1171.37 399.916 1162.88 397.594C1162.27 388.81 1159.44 380.325 1154.66 372.933C1149.88 365.541 1143.29 359.484 1135.53 355.329C1127.77 351.173 1119.08 349.056 1110.28 349.174C1101.47 349.293 1092.84 351.643 1085.19 356.006C1079.77 351.318 1073.44 347.788 1066.6 345.634" stroke="black" stroke-width="31.2812" stroke-linejoin="round"/>
</svg>
