<svg width="200" height="200" viewBox="0 0 200 200" fill="none" xmlns="http://www.w3.org/2000/svg">
<g clip-path="url(#clip0_1258_375)">
<path d="M182.5 138.5C182.5 142.833 181 146.333 178 149C175 151.667 171.333 153 167 153C163 153 159.167 151.5 155.5 148.5C146.167 140.833 137 133 128 125C119.333 117 110.333 109.333 101 102C102.333 110.333 103.833 118.667 105.5 127C107.167 135.333 108.833 143.667 110.5 152C111.167 155.333 112 159 113 163C114 166.667 114.667 170.333 115 174C115 174.667 115 175.5 115 176.5C115 177.5 115 178.333 115 179C115 183 113.5 186.667 110.5 190C107.5 193 104 194.5 100 194.5C95.3333 194.5 91.5 192.833 88.5 189.5C85.8333 186.167 84.5 182.333 84.5 178C84.5 175 85 172 86 169C87.3333 165.667 88.1667 162.5 88.5 159.5C90.1667 149.833 91.8333 140.333 93.5 131C95.1667 121.333 96.3333 111.833 97 102.5C86.6667 109.833 77.1667 117.833 68.5 126.5C59.8333 135.167 50.6667 143.333 41 151C38 153.333 35 154.5 32 154.5C28 154.5 24.3333 153.167 21 150.5C18 147.833 16.5 144.333 16.5 140C16.5 136.667 17.3333 133.5 19 130.5C20.6667 127.5 23.1667 125.5 26.5 124.5C38.1667 120.833 49.8333 117.167 61.5 113.5C73.1667 109.5 84.5 104.5 95.5 98.5C87.8333 94.8333 80 91.5 72 88.5C64 85.1666 56 82.3333 48 80C44.3333 78.3333 40.5 77 36.5 76C32.5 75 28.6667 73.8333 25 72.5C22.3333 71.5 20.1667 69.6667 18.5 67C17.1667 64 16.5 61.1666 16.5 58.5C16.5 53.8333 18 50.3333 21 48C24 45.3333 27.6667 44 32 44C36.3333 44 39.6667 45.1666 42 47.5C46.6667 51.1666 51 55.1667 55 59.5C59.3333 63.8333 63.6667 68 68 72C72.6667 76 77.3333 79.8333 82 83.5C87 87.1666 92.1667 90.8333 97.5 94.5C96.1667 82.1667 94.1667 70 91.5 58C88.8333 46 86.3333 33.8333 84 21.5C84 20.8333 83.8333 20.3333 83.5 20C83.5 19.3333 83.5 18.8333 83.5 18.5C83.5 14.5 85 11 88 7.99997C91.3333 4.66664 95 2.99998 99 2.99998C103.333 2.99998 107 4.83332 110 8.49999C113 11.8333 114.5 15.5 114.5 19.5C114.5 19.8333 114.333 20.1667 114 20.5C114 20.5 114 20.6667 114 21C111 33 108.5 45.3333 106.5 58C104.5 70.3333 102.667 82.5 101 94.5C111 87.1667 120.333 79.3333 129 71C138 62.6666 147.167 54.6666 156.5 47C159.833 44.3333 163.167 43 166.5 43C170.5 43 174 44.3333 177 47C180 49.6666 181.5 53.1667 181.5 57.5C181.5 64.5 178.667 69.3333 173 72C171.667 72 167.667 73.3333 161 76C154.667 78.3333 147.333 81.1666 139 84.5C131 87.8333 123.5 90.8333 116.5 93.5C109.833 96.1666 105.5 98 103.5 99C111.5 102.667 119.667 106.167 128 109.5C136.667 112.5 145.167 115.333 153.5 118C156.833 119 160.167 120 163.5 121C167.167 122 170.5 123.167 173.5 124.5C179.5 127.5 182.5 132.167 182.5 138.5Z" fill="white"/>
</g>
<defs>
<clipPath id="clip0_1258_375">
<rect width="200" height="200" rx="100" fill="white"/>
</clipPath>
</defs>
</svg>
