<svg width="300" height="300" viewBox="0 0 300 300" fill="none" xmlns="http://www.w3.org/2000/svg">
<g clip-path="url(#clip0_857_3)">
<rect width="300" height="300" rx="150" fill="black"/>
<path d="M232.5 188.5C232.5 192.833 231 196.333 228 199C225 201.667 221.333 203 217 203C213 203 209.167 201.5 205.5 198.5C196.167 190.833 187 183 178 175C169.333 167 160.333 159.333 151 152C152.333 160.333 153.833 168.667 155.5 177C157.167 185.333 158.833 193.667 160.5 202C161.167 205.333 162 209 163 213C164 216.667 164.667 220.333 165 224C165 224.667 165 225.5 165 226.5C165 227.5 165 228.333 165 229C165 233 163.5 236.667 160.5 240C157.5 243 154 244.5 150 244.5C145.333 244.5 141.5 242.833 138.5 239.5C135.833 236.167 134.5 232.333 134.5 228C134.5 225 135 222 136 219C137.333 215.667 138.167 212.5 138.5 209.5C140.167 199.833 141.833 190.333 143.5 181C145.167 171.333 146.333 161.833 147 152.5C136.667 159.833 127.167 167.833 118.5 176.5C109.833 185.167 100.667 193.333 91 201C88 203.333 85 204.5 82 204.5C78 204.5 74.3333 203.167 71 200.5C68 197.833 66.5 194.333 66.5 190C66.5 186.667 67.3333 183.5 69 180.5C70.6667 177.5 73.1667 175.5 76.5 174.5C88.1667 170.833 99.8333 167.167 111.5 163.5C123.167 159.5 134.5 154.5 145.5 148.5C137.833 144.833 130 141.5 122 138.5C114 135.167 106 132.333 98 130C94.3333 128.333 90.5 127 86.5 126C82.5 125 78.6667 123.833 75 122.5C72.3333 121.5 70.1667 119.667 68.5 117C67.1667 114 66.5 111.167 66.5 108.5C66.5 103.833 68 100.333 71 98C74 95.3333 77.6667 94 82 94C86.3333 94 89.6667 95.1666 92 97.5C96.6667 101.167 101 105.167 105 109.5C109.333 113.833 113.667 118 118 122C122.667 126 127.333 129.833 132 133.5C137 137.167 142.167 140.833 147.5 144.5C146.167 132.167 144.167 120 141.5 108C138.833 96 136.333 83.8333 134 71.5C134 70.8333 133.833 70.3333 133.5 70C133.5 69.3333 133.5 68.8333 133.5 68.5C133.5 64.5 135 61 138 58C141.333 54.6666 145 53 149 53C153.333 53 157 54.8333 160 58.5C163 61.8333 164.5 65.5 164.5 69.5C164.5 69.8333 164.333 70.1667 164 70.5C164 70.5 164 70.6667 164 71C161 83 158.5 95.3333 156.5 108C154.5 120.333 152.667 132.5 151 144.5C161 137.167 170.333 129.333 179 121C188 112.667 197.167 104.667 206.5 97C209.833 94.3333 213.167 93 216.5 93C220.5 93 224 94.3333 227 97C230 99.6666 231.5 103.167 231.5 107.5C231.5 114.5 228.667 119.333 223 122C221.667 122 217.667 123.333 211 126C204.667 128.333 197.333 131.167 189 134.5C181 137.833 173.5 140.833 166.5 143.5C159.833 146.167 155.5 148 153.5 149C161.5 152.667 169.667 156.167 178 159.5C186.667 162.5 195.167 165.333 203.5 168C206.833 169 210.167 170 213.5 171C217.167 172 220.5 173.167 223.5 174.5C229.5 177.5 232.5 182.167 232.5 188.5Z" fill="white"/>
</g>
<defs>
<clipPath id="clip0_857_3">
<rect width="300" height="300" rx="150" fill="white"/>
</clipPath>
</defs>
</svg>
